<svg xmlns="http://www.w3.org/2000/svg" width="89" height="75" viewBox="0 0 89 75">
    <g fill="#111D22" fill-rule="evenodd">
        <path fill-rule="nonzero" d="M39.938 60.028l4.057-3.282 2.885-2.335a.945.945 0 0 1 .879-.17.947.947 0 0 1 .633.634l1.767 5.766-4.073 3.362a1.393 1.393 0 0 0-.189 1.957 1.383 1.383 0 0 0 1.952.19l5.759-4.755 8.285-6.142a80.945 80.945 0 0 1 11.962 16.142l.143.254H9.87l17.061-12.13c.63-.437-1.683-2.21-2.312-1.773L4.646 71.896a1.393 1.393 0 0 0 .79 2.534h70.937a1.393 1.393 0 0 0 1.207-2.074l-1.31-2.327a83.777 83.777 0 0 0-13.239-17.593 1.384 1.384 0 0 0-1.812-.142l-8.732 6.474-1.443-4.71a3.731 3.731 0 0 0-2.474-2.476 3.716 3.716 0 0 0-3.432.666l-.104.083v-8.28l24.394-3.183a1.448 1.448 0 0 0 1.247-1.623l-1.78-13.706a1.442 1.442 0 0 0-1.619-1.25L45.034 27.19v-3.716h18.11c.442 0 .86-.203 1.134-.552l5.433-6.91a1.453 1.453 0 0 0 0-1.794l-5.433-6.91a1.443 1.443 0 0 0-1.134-.553h-18.11V5.222c0-2.483-2.014-4.502-4.49-4.502-2.476 0-4.49 2.02-4.49 4.502v1.533h-9.99c-.798 0-1.445.65-1.445 1.45 0 .8.647 1.447 1.445 1.447h17.272a1.443 1.443 0 0 0 .507 0h18.6l4.293 5.463-4.293 5.462H13.957V9.652h14.278c.798 0 .272-2.897-.526-2.897H12.512c-.798 0-1.445.65-1.445 1.45v13.82c0 .8.647 1.45 1.445 1.45h23.541v4.888l-18.985 2.476c-.44.057-.828.313-1.054.694l-4.498 7.556a1.451 1.451 0 0 0 .23 1.778l6.277 6.15a1.441 1.441 0 0 0 1.197.401l16.833-2.196v13.395a3.415 3.415 0 0 1-.765-.096 3.353 3.353 0 0 1-2.293-1.91 3.19 3.19 0 0 0-2.07-1.784 3.183 3.183 0 0 0-2.69.467l-6.003 4.225a1.393 1.393 0 0 0-.338 1.937c.44.628 1.305.78 1.932.339l6.003-4.225a.42.42 0 0 1 .358-.062.42.42 0 0 1 .276.238 6.11 6.11 0 0 0 4.177 3.48 6.133 6.133 0 0 0 2.52.076s.622-.126 1.406-.434m.377-55.646c0-.885.719-1.605 1.6-1.605.883 0 1.601.72 1.601 1.605v1.533h-3.2V5.222zm0 18.252h3.201v4.094l-3.2.417v-4.51zm-24.362 16.12l3.555-5.972 48.08-6.273 1.406 10.833-30.055 3.921-.069-.003c-.155 0-.304.025-.444.07l-17.512 2.284-4.96-4.86zM38.943 57.26V44.845l3.201-.418V54.67l-3.2 2.59z"/>
        <text font-family="OpenSans-ExtraBold, Open Sans" font-size="24.3" font-weight="600" letter-spacing=".747" transform="rotate(-5 -19.241 13.62)">
            <tspan x="77.318" y="27.62">?</tspan>
        </text>
        <path d="M3.514 59.244l-.059-.678c-.045-.515.022-.959.201-1.332.18-.373.522-.75 1.029-1.134.402-.305.687-.573.854-.805.168-.232.24-.487.215-.765a.598.598 0 0 0-.345-.498c-.211-.111-.477-.153-.797-.125-.793.07-1.696.432-2.708 1.087L.62 52.946c1.243-.86 2.576-1.353 4-1.477 1.171-.103 2.113.074 2.825.53.713.457 1.108 1.13 1.185 2.017.056.636-.044 1.199-.3 1.69-.257.49-.692.972-1.307 1.444-.52.406-.843.697-.968.875a.886.886 0 0 0-.158.605l.036.402-2.42.212zm-.097 2.787c-.042-.483.065-.868.324-1.156.258-.287.66-.454 1.206-.502.526-.046.94.051 1.245.292.304.24.477.6.519 1.078.042.478-.072.861-.34 1.15-.269.288-.655.454-1.16.498-.52.045-.938-.049-1.255-.283-.317-.235-.497-.593-.54-1.077z"/>
    </g>
</svg>
