<svg xmlns="http://www.w3.org/2000/svg" width="17" height="17" viewBox="0 0 17 17">
    <path fill="#111D22" fill-rule="evenodd" d="M12.042 17h4.25a.71.71 0 0 0 .708-.708V.708A.71.71 0 0 0 16.292 0H.708A.71.71 0 0 0 0 .708v15.584c0 .39.318.708.708.708H8.5v-4.958H6.73a.354.354 0 0 1-.355-.354V8.854c0-.195.159-.354.354-.354H8.5V6.73a3.9 3.9 0 0 1 3.896-3.897h2.125c.195 0 .354.159.354.354v2.834a.354.354 0 0 1-.354.354h-1.417c-.586 0-1.062.477-1.062 1.063V8.5h2.479a.355.355 0 0 1 .351.398l-.354 2.833a.354.354 0 0 1-.351.31h-2.125V17z"/>
</svg>
