<?xml version="1.0" encoding="UTF-8"?>
<svg width="21px" height="17px" viewBox="0 0 21 17" version="1.1" xmlns="http://www.w3.org/2000/svg" xmlns:xlink="http://www.w3.org/1999/xlink">
    <!-- Generator: sketchtool 64 (101010) - https://sketch.com -->
    <title>FFDFB141-84BD-48DA-8D76-8B1FB8D93A4C</title>
    <desc>Created with sketchtool.</desc>
    <g id="2-R" stroke="none" stroke-width="1" fill="none" fill-rule="evenodd">
        <g id="Zmiana-języka_1_artykuł_a" transform="translate(-599.000000, -1034.000000)">
            <rect fill="#FFFFFF" x="0" y="0" width="1440" height="2308"></rect>
            <rect id="Rectangle" stroke="#000000" x="569" y="1020" width="300" height="47"></rect>
            <g id="school-material-copy" transform="translate(599.000000, 1034.000000)" fill="#000000" fill-rule="nonzero">
                <path d="M18.7812008,14.66247 L18.7812008,0 L18.2176521,0.0469044591 C15.9575062,0.232373863 13.7406407,0.768731508 11.6480265,1.6366426 L10.6560005,2.04553467 L10.6560005,16.6500007 L11.3784249,16.3519248 C13.5438946,15.4575181 15.8366813,14.9041531 18.1740109,14.7115227 L18.7812008,14.66247 Z" id="Path"></path>
                <path d="M20.6460009,2.2644001 L19.5476201,2.2644001 L19.5476201,15.0842747 C19.5483352,15.2752851 19.4019202,15.4348181 19.2115271,15.4505568 L18.2738632,15.5274617 C18.003201,15.5498178 17.7332539,15.5775394 17.4643794,15.6106264 C17.3771382,15.6211785 17.2904334,15.6351287 17.2037285,15.6472904 C17.0224528,15.671435 16.8415346,15.6959372 16.6611528,15.724553 C16.5560342,15.7413648 16.4516309,15.7610381 16.34687,15.7794596 C16.185438,15.8077176 16.0236485,15.8357969 15.8625742,15.867632 C15.7526288,15.8896304 15.6428623,15.9143115 15.5307716,15.9380983 C15.3773845,15.9706488 15.2239973,16.0039146 15.0716828,16.0402209 C14.9574469,16.0674059 14.8435686,16.0962006 14.7300478,16.1251741 C14.581845,16.1618381 14.4343574,16.2013636 14.2870485,16.2424988 C14.1724551,16.2739762 14.0578616,16.307242 13.9436257,16.3408656 C13.7972107,16.384147 13.652941,16.4281438 13.5083137,16.4742867 C13.3951504,16.5109507 13.2818084,16.5476147 13.1690027,16.5840999 C13.0241967,16.6329255 12.8801057,16.6833609 12.736551,16.7354058 C12.6267845,16.7752891 12.5168392,16.8153512 12.4045698,16.8573807 C12.3543346,16.8765175 12.3044569,16.8969062 12.2544005,16.9164007 L20.6460009,16.9164007 L20.6460009,2.2644001 Z" id="Path"></path>
                <path d="M2.42834879,0.0469044591 L1.86480008,0 L1.86480008,14.6635441 L2.52031996,14.7188627 C4.85620685,14.9127463 7.14700986,15.4695127 9.30887291,16.3687531 L9.99000043,16.6500007 L9.99000043,2.04553467 L8.99905635,1.63700063 C6.90626184,0.768910521 4.68903574,0.232373863 2.42834879,0.0469044591 Z" id="Path"></path>
                <path d="M0,2.2644001 L0,16.9164007 L8.39160036,16.9164007 C8.34658123,16.8986938 8.30156211,16.879735 8.25618572,16.8629223 C8.15149837,16.8230371 8.04591784,16.7849405 7.9405159,16.7464862 C7.79188133,16.6924712 7.6434254,16.6398871 7.49371897,16.5896282 C7.38545868,16.5529624 7.27684111,16.5173698 7.1680449,16.4826715 C7.01958897,16.4338434 6.87059713,16.387877 6.72142661,16.3449512 C6.6115585,16.3127569 6.50186907,16.2803837 6.3921796,16.2496202 C6.24175858,16.2079465 6.09098025,16.168419 5.93984459,16.1296069 C5.83015517,16.1013474 5.72028706,16.0730879 5.60809654,16.0467959 C5.45481717,16.0101301 5.30064452,15.9765049 5.14665051,15.9434163 C5.03696108,15.9196283 4.92709297,15.8954825 4.81740354,15.873483 C4.65787146,15.8420041 4.49762483,15.8137447 4.33737819,15.785664 C4.23233357,15.7672417 4.12728895,15.7489983 4.02206565,15.7302182 C3.84520483,15.7021376 3.66780805,15.6783496 3.49041124,15.6543827 C3.40073031,15.6423992 3.31176392,15.6280906 3.22226163,15.6178958 C2.95393338,15.5853437 2.68560509,15.5576208 2.41727684,15.5347271 L1.43239416,15.4512007 C1.24249209,15.4349246 1.09689452,15.2755627 1.09760911,15.0849006 L1.09760911,2.2644001 L0,2.2644001 Z" id="Path"></path>
            </g>
        </g>
    </g>
</svg>