<svg xmlns="http://www.w3.org/2000/svg" width="18" height="18" viewBox="0 0 18 18">
    <g fill="#111D22" fill-rule="evenodd">
        <path d="M15.902 9.131a.896.896 0 0 1-.856.706.29.29 0 0 0-.271.234.29.29 0 0 0 .16.32c.383.18.598.584.517.982l-.076.378c-.1.499-.65.81-1.132.692-.135-.033-.274-.058-.41-.085l-.606-.12c-.266-.055-.533-.107-.8-.16l-.951-.192-1.064-.214c-.378-.076-.758-.151-1.136-.229-.39-.077-.778-.156-1.165-.234l-1.154-.232-1.102-.221-1.008-.202-.873-.175a501.761 501.761 0 0 0-1.18-.237l-.22-.045-.012-.002a.923.923 0 0 1-1.077 1.093c-.12-.024-.251.021-.303.133l-.162.351c-.053.112 0 .241.095.319.018.014 12.994 5.998 13.016 6.003.12.023.252-.022.304-.133l.162-.351c.052-.112 0-.242-.095-.32a.92.92 0 0 1 .75-1.623c.121.023.253-.022.305-.133l.162-.352c.052-.111 0-.24-.096-.318a.92.92 0 0 1 .751-1.624c.12.023.252-.022.304-.134l.162-.35c.052-.112 0-.242-.095-.32a.92.92 0 0 1 .75-1.624c.121.024.253-.021.305-.133l.178-.389a.222.222 0 0 0-.108-.295L15.932 9l-.03.131z"/>
        <path fill-rule="nonzero" d="M.18 9.074C.201 9.085 14.943 12 14.967 12c.13-.006.254-.084.279-.207l.08-.392c.024-.126-.06-.245-.177-.3a.954.954 0 0 1-.538-1.052.967.967 0 0 1 .91-.768c.128-.006.253-.084.278-.207l.059-.288.02-.106c.025-.125-.058-.245-.175-.299a.954.954 0 0 1-.539-1.053.967.967 0 0 1 .91-.768c.129-.005.254-.084.278-.207l.08-.392c.025-.125-.059-.245-.176-.299a.954.954 0 0 1-.538-1.053.967.967 0 0 1 .91-.768c.128-.005.253-.084.278-.207l.089-.435a.23.23 0 0 0-.184-.27S1.998 0 1.982 0a.234.234 0 0 0-.228.185l-.09.435c-.024.125.06.245.177.299a.954.954 0 0 1 .538 1.053.967.967 0 0 1-.91.767c-.128.006-.253.085-.278.208l-.08.392c-.024.125.06.245.177.299a.954.954 0 0 1 .538 1.053.967.967 0 0 1-.91.767c-.129.006-.254.084-.278.208l-.08.392c-.024.125.059.245.176.299a.954.954 0 0 1 .538 1.053.967.967 0 0 1-.909.767c-.129.006-.254.084-.278.208l-.08.392c-.027.125.057.243.174.297zm12.627-4.786a.474.474 0 0 1 .928.183l-.625 3.066-.385 1.89a.472.472 0 0 1-.557.366.468.468 0 0 1-.371-.55l.43-2.108.58-2.847zm-8.541-1.69a.474.474 0 0 1 .928.183l-.216 1.058-.244 1.201-.197.967-.35 1.73a.472.472 0 0 1-.596.356.465.465 0 0 1-.331-.54l.07-.348.184-.904.752-3.703z"/>
    </g>
</svg>
