<svg xmlns="http://www.w3.org/2000/svg" width="60" height="60" viewBox="0 0 60 60">
    <path fill="#FFF" fill-rule="evenodd" d="M30 60C13.431 60 0 46.569 0 30 0 13.431 13.431 0 30 0c16.569 0 30 13.431 30 30 0 16.569-13.431 30-30 30zm14.836-32.68H42.33C41.793 20.99 36.468 16 30 16s-11.793 4.989-12.33 11.32h-2.506A3.168 3.168 0 0 0 12 30.484v8.438a3.168 3.168 0 0 0 3.164 3.164h4.57V28.375c0-5.66 4.606-10.266 10.266-10.266s10.266 4.606 10.266 10.266v13.71h4.57A3.167 3.167 0 0 0 48 38.923v-8.438a3.168 3.168 0 0 0-3.164-3.164z"/>
</svg>
