<svg xmlns="http://www.w3.org/2000/svg" width="30" height="24" viewBox="0 0 30 24">
    <path fill="#111D22" fill-rule="evenodd" d="M2.79 21.619C5.055 22.546 7.412 23 9.934 23h.021c4.59-.005 8.864-1.971 12.036-5.536 2.943-3.309 4.442-7.5 4.01-11.211a.501.501 0 0 1 .226-.479c.437-.28 1.156-.848 1.822-1.534-.689.17-1.42.3-1.908.302-.275-.01-.449-.171-.493-.407a.5.5 0 0 1 .31-.559c.482-.187 1.172-.841 1.678-1.576-.849.348-1.883.696-2.599.796a.49.49 0 0 1-.407-.127C23.355 1.499 22.172 1 20.674 1c-1.07 0-2.038.291-3.236.974-2.208 1.258-2.266 4.419-1.953 5.667a.5.5 0 0 1-.099.439.474.474 0 0 1-.412.182c-6.69-.345-10.71-3.733-12.48-5.671a4.921 4.921 0 0 0-.257 3.26c.397 1.532 1.454 2.816 2.293 3.293a.5.5 0 0 1-.152.925c-.896.177-1.899-.252-2.65-.704.6 3.054 3.766 4.48 4.5 4.559a.5.5 0 0 1 .264.883c-.647.533-1.544.549-2.459.381 1.214 1.767 3.23 2.924 5.304 2.97a.499.499 0 0 1 .318.876c-1.667 1.459-4.244 2.4-6.866 2.585zM9.934 24c-3.463 0-6.628-.812-9.675-2.483a.5.5 0 0 1 .296-.936c2.617.297 5.457-.327 7.46-1.577-2.318-.494-4.412-2.139-5.448-4.373a.5.5 0 0 1 .597-.689c.357.106.745.211 1.118.276C2.593 13.237.63 11.251.63 8.341a.499.499 0 0 1 .811-.391c.337.268.731.534 1.132.743A7.065 7.065 0 0 1 1.27 6.102c-.417-1.609-.177-3.218.695-4.652a.5.5 0 0 1 .814-.058C4.086 2.988 7.79 6.67 14.398 7.221c-.207-1.757.155-4.754 2.545-6.116C18.284.341 19.435 0 20.674 0c1.674 0 3.055.547 4.448 1.767 1.122-.222 2.931-.991 3.316-1.253a.5.5 0 0 1 .764.543c-.192.709-.674 1.511-1.25 2.174.568-.145 1.088-.312 1.323-.43a.5.5 0 1 1 .644.719c-.785 1.212-2.069 2.339-2.893 2.921.351 3.913-1.237 8.259-4.287 11.687C19.375 21.91 14.835 23.995 9.957 24h-.022z"/>
</svg>
