<svg xmlns="http://www.w3.org/2000/svg" width="26" height="26" viewBox="0 0 26 26">
    <path fill="#111D22" fill-rule="evenodd" d="M18 25h6c.551 0 1-.449 1-1V2c0-.551-.449-1-1-1H2c-.551 0-1 .449-1 1v22c0 .551.449 1 1 1h11v-7h-2.5a.5.5 0 0 1-.5-.5v-4a.5.5 0 0 1 .5-.5H13v-2.5C13 7.467 15.467 5 18.5 5h3a.5.5 0 0 1 .5.5v4a.5.5 0 0 1-.5.5h-2c-.827 0-1.5.673-1.5 1.5V13h3.5a.501.501 0 0 1 .496.562l-.5 4A.5.5 0 0 1 21 18h-3v7zm6 1h-6.5a.5.5 0 0 1-.5-.5v-8a.5.5 0 0 1 .5-.5h3.059l.375-3H17.5a.5.5 0 0 1-.5-.5v-2c0-1.378 1.122-2.5 2.5-2.5H21V6h-2.5a4.505 4.505 0 0 0-4.5 4.5v3a.5.5 0 0 1-.5.5H11v3h2.5a.5.5 0 0 1 .5.5v8a.5.5 0 0 1-.5.5H2c-1.103 0-2-.897-2-2V2C0 .897.897 0 2 0h22c1.103 0 2 .897 2 2v22c0 1.103-.897 2-2 2z"/>
</svg>
