<?xml version="1.0" encoding="UTF-8"?>
<svg width="19px" height="19px" viewBox="0 0 19 19" version="1.1" xmlns="http://www.w3.org/2000/svg" xmlns:xlink="http://www.w3.org/1999/xlink">
    <!-- Generator: sketchtool 52.6 (67491) - http://www.bohemiancoding.com/sketch -->
    <title>5397B6E3-8F0B-4E86-9B27-3B57985E8571</title>
    <desc>Created with sketchtool.</desc>
    <g id="UX-/-UI" stroke="none" stroke-width="1" fill="none" fill-rule="evenodd">
        <g id="MVP-strona-glowna-UI-RU-hover" transform="translate(-84.000000, -12.000000)" fill="#FFFFFF">
            <g id="Group-11" transform="translate(84.000000, 10.000000)">
                <path d="M13.5989011,20.3983516 L18.1318681,20.3983516 C18.5481456,20.3983516 18.8873626,20.0591346 18.8873626,19.6428571 L18.8873626,3.02197802 C18.8873626,2.60570055 18.5481456,2.26648352 18.1318681,2.26648352 L1.51098901,2.26648352 C1.09471154,2.26648352 0.755494505,2.60570055 0.755494505,3.02197802 L0.755494505,19.6428571 C0.755494505,20.0591346 1.09471154,20.3983516 1.51098901,20.3983516 L9.82142857,20.3983516 L9.82142857,15.1098901 L7.93269231,15.1098901 C7.72417582,15.1098901 7.55494505,14.9406593 7.55494505,14.7321429 L7.55494505,11.7101648 C7.55494505,11.5016484 7.72417582,11.3324176 7.93269231,11.3324176 L9.82142857,11.3324176 L9.82142857,9.44368132 C9.82142857,7.15226648 11.6852335,5.28846154 13.9766484,5.28846154 L16.2431319,5.28846154 C16.4516484,5.28846154 16.6208791,5.45769231 16.6208791,5.66620879 L16.6208791,8.68818681 C16.6208791,8.8967033 16.4516484,9.06593407 16.2431319,9.06593407 L14.7321429,9.06593407 C14.1073489,9.06593407 13.5989011,9.57438187 13.5989011,10.1991758 L13.5989011,11.3324176 L16.2431319,11.3324176 C16.3519231,11.3324176 16.4546703,11.3792582 16.5264423,11.4600962 C16.5982143,11.5409341 16.631456,11.6497253 16.6178571,11.7570055 L16.2401099,14.7789835 C16.2166896,14.9678571 16.0557692,15.1098901 15.8653846,15.1098901 L13.5989011,15.1098901 L13.5989011,20.3983516 Z" id="Fill-61"></path>
            </g>
        </g>
    </g>
</svg>