<?xml version="1.0" encoding="UTF-8"?>
<svg width="24px" height="15px" viewBox="0 0 24 15" version="1.1" xmlns="http://www.w3.org/2000/svg"
     xmlns:xlink="http://www.w3.org/1999/xlink">
    <!-- Generator: sketchtool 52.6 (67491) - http://www.bohemiancoding.com/sketch -->
    <title>061FADF4-9096-4457-B180-C1866102EFC2</title>
    <desc>Created with sketchtool.</desc>
    <g id="UX-/-UI" stroke="none" stroke-width="1" fill="none" fill-rule="evenodd">
        <g id="MVP-strona-glowna-UI-RU-hover" transform="translate(-211.000000, -14.000000)" fill="#9b9b9b">
            <g id="Group-11" transform="translate(84.000000, 10.000000)">
                <path d="M148.060127,18.1185904 L145.678808,18.1185904 C145.312393,18.1185904 144.936913,17.758975 144.123245,16.9475739 C143.384371,16.2109667 142.267751,15.0966123 141.655045,15.0966123 C141.346803,15.0966123 141.242545,15.6133706 141.12922,16.3431783 C141.006075,17.134181 140.852709,18.1185904 139.963492,18.1185904 L138.058135,18.1185904 C134.221734,18.1185904 128.216308,8.73761509 127.68444,5.71865905 C127.664797,5.60835685 127.695017,5.49578817 127.766789,5.41041729 C127.838561,5.32429092 127.94433,5.27518378 128.056143,5.27518378 L131.833616,5.27518378 C131.994536,5.27518378 132.138836,5.37793103 132.190965,5.53054092 C132.958547,7.76831564 134.668231,11.3191398 135.988836,11.3191398 C135.992613,11.3191398 136.364316,11.2571893 136.364316,9.05038982 C136.364316,6.96673597 135.765209,6.3034118 135.647352,6.25959312 C135.438836,6.25959312 135.299069,6.09413982 135.299069,5.88562334 C135.299069,5.25554092 136.145979,4.51968927 138.534852,4.51968927 C139.829014,4.51968927 140.366171,4.53253268 140.672146,4.84077444 C140.905594,5.07573323 140.903327,5.38397498 140.900306,5.74056839 L140.89955,9.8368596 C140.89955,10.7653623 141.071803,11.3191398 141.359646,11.3191398 C141.855251,11.1106233 145.186981,7.03397498 145.437806,5.5879585 C145.469536,5.40739531 145.626679,5.27518378 145.810264,5.27518378 L149.965484,5.27518378 C150.174001,5.27518378 150.343231,5.44441454 150.343231,5.65293103 C150.343231,5.98308213 149.874825,6.81563707 148.26411,9.50973048 C147.586432,10.6437277 146.753121,12.0376151 146.585402,12.4365162 C146.777297,12.7628898 147.631762,13.7420107 148.267888,14.4710629 C149.901267,16.3424228 150.343231,16.8992222 150.343231,17.2467497 C150.343231,18.1185904 149.285539,18.1185904 148.060127,18.1185904"
                      id="Fill-281"></path>
            </g>
        </g>
    </g>
</svg>
