<?xml version="1.0" encoding="UTF-8"?>
<svg width="21px" height="20px" viewBox="0 0 21 20" version="1.1" xmlns="http://www.w3.org/2000/svg"
     xmlns:xlink="http://www.w3.org/1999/xlink">
    <!-- Generator: sketchtool 52.6 (67491) - http://www.bohemiancoding.com/sketch -->
    <title>65DFC01B-27D6-4FBF-A60C-D83EB345673D</title>
    <desc>Created with sketchtool.</desc>
    <g id="UX-/-UI" stroke="none" stroke-width="1" fill="none" fill-rule="evenodd">
        <g id="MVP-strona-glowna-UI-RU-hover" transform="translate(-172.000000, -10.000000)">
            <g id="Group-11" transform="translate(84.000000, 10.000000)">
                <g id="telegram-(1)" transform="translate(88.392857, 0.377747)">
                    <g id="Group-7">
                        <circle id="Oval" stroke="#9b9b9b" fill="#9b9b9b" cx="9.82142857" cy="9.82142857"
                                r="9.32142857"></circle>
                        <path d="M13.8965058,5.3135673 L3.99126432,9.42042546 C3.86233354,9.47385369 3.77734153,9.60609895 3.77747268,9.75341016 C3.77760383,9.90058189 3.86259584,10.0326877 3.99165778,10.0859764 L5.92299627,10.8840517 C6.14413287,11.4719015 7.14606799,14.1370349 7.1619384,14.1772106 C7.25506235,14.4115694 7.54138574,14.4691826 7.70835306,14.291042 L9.20423867,12.700053 L11.9628065,15.0323411 C12.1558747,15.1955553 12.447051,15.0886988 12.5000399,14.8281142 L14.3467798,5.72160262 C14.4017361,5.44874207 14.1497767,5.20880335 13.8965058,5.3135673 Z M10.3596316,7.54653194 L6.14951044,10.2113862 L5.03910561,9.75257319 L10.3596316,7.54653194 Z M11.351992,7.74964286 L7.91624249,11.0826986 C7.87164792,11.1260829 7.83492297,11.1876021 7.81826558,11.2540037 C7.81813443,11.2542827 7.81800328,11.2547012 7.81800328,11.2549802 L7.40629044,12.9051169 L6.59886636,10.7580838 L11.351992,7.74964286 Z M8.33543147,11.9657289 L8.67513717,12.2528184 L8.11534412,12.8482012 L8.33543147,11.9657289 Z M11.9574289,14.1154125 C11.3164475,13.5734579 9.25421081,11.8302751 8.65992255,11.3279383 L13.4687914,6.66280413 L11.9574289,14.1154125 Z"
                              id="Shape" fill="#FFFFFF" fill-rule="nonzero"></path>
                    </g>
                </g>
            </g>
        </g>
    </g>
</svg>
