<svg xmlns="http://www.w3.org/2000/svg" width="30" height="22" viewBox="0 0 30 22">
    <g fill="#111D22" fill-rule="evenodd">
        <path d="M12 6.392v9.217L19.541 11 12 6.392zM11.5 17a.5.5 0 0 1-.5-.5v-11a.5.5 0 0 1 .761-.426l9 5.5a.5.5 0 0 1 0 .853l-9 5.5A.5.5 0 0 1 11.5 17z"/>
        <path d="M15 1c-3.253 0-5.875.238-8.651.49-.708.064-1.417.128-2.139.188A3.48 3.48 0 0 0 1 5.168v11.665a3.48 3.48 0 0 0 3.21 3.49c.754.062 1.487.13 2.216.196C9.115 20.767 11.654 21 15 21c3.44 0 5.902-.23 8.509-.473.745-.07 1.497-.14 2.281-.205A3.48 3.48 0 0 0 29 16.833V5.167a3.48 3.48 0 0 0-3.21-3.489c-.762-.063-1.5-.13-2.233-.199C20.889 1.232 18.369 1 15 1m0 21c-3.392 0-5.953-.236-8.666-.485-.726-.067-1.456-.134-2.207-.197C1.812 21.125 0 19.155 0 16.833V5.167C0 2.845 1.812.875 4.127.682 4.846.622 5.553.558 6.258.494 8.934.251 11.701 0 15 0c3.415 0 5.957.235 8.648.483.731.068 1.466.136 2.225.2C28.188.874 30 2.844 30 5.166v11.666c0 2.322-1.812 4.292-4.127 4.485-.78.065-1.529.135-2.27.204-2.632.246-5.117.478-8.603.478"/>
    </g>
</svg>
