<svg xmlns="http://www.w3.org/2000/svg" width="30" height="19" viewBox="0 0 30 19">
    <path fill="#111D22" fill-rule="evenodd" d="M18.5 13.982c1.225 0 2.685 1.457 3.973 2.742.504.502 1.193 1.19 1.413 1.266l3.092-.008c.693 0 1.72 0 1.995-.153-.264-.484-1.582-1.996-2.474-3.018-2.125-2.436-2.5-2.934-2.5-3.329 0-.349.358-1.008 2.39-4.408.829-1.385 1.895-3.169 2.37-4.092h-4.378c-.813 2.375-5.148 8-6.272 8-1.067 0-1.61-.996-1.61-2.962l.002-5.43c0-.194.003-.434-.024-.496-.165-.112-1.333-.112-2.107-.112-1.862 0-2.735.358-3.085.606.67.597 1.212 2.081 1.212 4.391 0 2.08-.181 4.003-1.497 4.003-2.78 0-5.241-6.303-5.854-8H1.135c1.235 4.156 8.375 15 12.604 15h2.477a.62.62 0 0 1 .044.002v-.002c.299 0 .423-.65.556-1.504.163-1.053.388-2.496 1.684-2.496m8.478 5h-3.152c-.485 0-.982-.476-2.06-1.55-.977-.975-2.455-2.45-3.266-2.45-.408 0-.546.684-.696 1.65-.163 1.047-.366 2.35-1.543 2.35h-2.522C8.66 18.982.712 6.565.008 2.57A.498.498 0 0 1 .5 1.982h5a.5.5 0 0 1 .473.338C6.989 5.282 9.252 9.982 11 9.982c.005 0 .497-.082.497-3.003 0-2.758-.793-3.636-.95-3.694-.275 0-.46-.219-.46-.495 0-.834 1.12-1.808 4.283-1.808 1.713 0 2.424.017 2.829.425.309.311.306.72.302 1.191L17.5 8.02c0 1.23.228 1.962.609 1.962.656-.276 5.066-5.672 5.398-7.586A.5.5 0 0 1 24 1.982h5.5a.5.5 0 0 1 .5.5c0 .437-.62 1.54-2.752 5.105-.897 1.501-2 3.346-2.222 3.874.254.432 1.385 1.728 2.227 2.693C29.415 16.631 30 17.368 30 17.828c0 1.154-1.4 1.154-3.022 1.154"/>
</svg>
