<?xml version="1.0" encoding="UTF-8"?>
<svg width="24px" height="19px" viewBox="0 0 24 19" version="1.1" xmlns="http://www.w3.org/2000/svg"
     xmlns:xlink="http://www.w3.org/1999/xlink">
    <!-- Generator: sketchtool 52.6 (67491) - http://www.bohemiancoding.com/sketch -->
    <title>5E4C1F14-5AF7-4A9F-AC34-D974899CA7C9</title>
    <desc>Created with sketchtool.</desc>
    <g id="UX-/-UI" stroke="none" stroke-width="1" fill="none" fill-rule="evenodd">
        <g id="MVP-strona-glowna-UI-RU-hover" transform="translate(-127.000000, -12.000000)" fill="#9b9b9b">
            <g id="Group-11" transform="translate(84.000000, 10.000000)">
                <path d="M51.3247687,20.3983516 C48.7084912,20.3983516 46.3173511,19.7848901 44.0153594,18.5224588 C43.8567055,18.4355769 43.7819116,18.2489698 43.8363072,18.0774725 C43.8914583,17.9052198 44.0622,17.7971841 44.2389857,17.8153159 C46.2161149,18.0396978 48.3617193,17.5682692 49.8742193,16.6239011 C48.1237385,16.2506868 46.541733,15.0078984 45.7590407,13.3201236 C45.6970901,13.1848901 45.7189995,13.0262363 45.8164583,12.9144231 C45.9131616,12.8018544 46.0672824,12.7572802 46.2100709,12.7995879 C46.4797824,12.8796703 46.7729143,12.9589973 47.0547138,13.0081044 C45.7771726,12.2669643 44.2948923,10.7665522 44.2948923,8.56806319 C44.2948923,8.42300824 44.3779967,8.2907967 44.5086973,8.22809066 C44.6386423,8.16538462 44.7942742,8.18200549 44.9075984,8.27266484 C45.1622,8.47513736 45.4598649,8.6760989 45.7628182,8.83399725 C45.3457852,8.30968407 44.9755929,7.63880495 44.7776533,6.87651099 C44.4626121,5.66092033 44.6439308,4.44532967 45.302722,3.36195055 C45.3661835,3.25693681 45.4764857,3.1904533 45.5988759,3.18138736 C45.7205105,3.17081044 45.8398786,3.22369505 45.9176945,3.31813187 C46.9058813,4.5239011 49.7034775,7.30563187 54.6957852,7.72190934 C54.5401533,6.39450549 54.8136423,4.13028846 56.6192742,3.10130495 C57.6323923,2.52410714 58.5019665,2.26648352 59.4380242,2.26648352 C60.702722,2.26648352 61.7460599,2.67973901 62.7984638,3.60144231 C63.6461286,3.43372253 65.0128182,2.85274725 65.3036835,2.65480769 C65.4336286,2.56565934 65.6058813,2.56641484 65.7358264,2.65858516 C65.8642605,2.75 65.9224335,2.91243132 65.8808813,3.06504121 C65.7358264,3.60068681 65.371678,4.20659341 64.9357577,4.70748626 C65.3656341,4.59793956 65.7584912,4.47177198 65.9360324,4.38262363 C66.0878868,4.30707418 66.2737385,4.34107143 66.3870627,4.46799451 C66.5011423,4.59491758 66.5154967,4.78228022 66.4225709,4.92582418 C65.8295077,5.84148352 64.8594528,6.69292582 64.2369253,7.13262363 C64.5021039,10.0888736 63.3023786,13.3722527 60.9981204,15.9620879 C58.4566368,18.8193681 55.0266918,20.3945742 51.3413896,20.3983516 L51.3247687,20.3983516 Z"
                      id="Fill-63"></path>
            </g>
        </g>
    </g>
</svg>
