<?xml version="1.0" encoding="UTF-8"?>
<svg width="24px" height="17px" viewBox="0 0 24 17" version="1.1" xmlns="http://www.w3.org/2000/svg"
     xmlns:xlink="http://www.w3.org/1999/xlink">
    <!-- Generator: sketchtool 52.6 (67491) - http://www.bohemiancoding.com/sketch -->
    <title>68760DD4-7188-435C-9B4F-99F03065688E</title>
    <desc>Created with sketchtool.</desc>
    <g id="UX-/-UI" stroke="none" stroke-width="1" fill="none" fill-rule="evenodd">
        <g id="MVP-strona-glowna-UI-RU-hover" transform="translate(-253.000000, -13.000000)" fill="#9b9b9b">
            <g id="Group-11" transform="translate(84.000000, 10.000000)">
                <g id="Group-12" transform="translate(169.986264, 3.021978)">
                    <path d="M11.3324176,16.621105 C8.76978022,16.621105 6.83495879,16.4428083 4.7853022,16.2546902 C4.23681319,16.204072 3.6853022,16.1534539 3.11792582,16.1058577 C1.36895604,15.9600473 0,14.4717231 0,12.7174649 L0,3.90386597 C0,2.14960773 1.36895604,0.661283557 3.11792582,0.515473118 C3.66112637,0.470143447 4.19526099,0.421791799 4.72788462,0.373440151 C6.74958791,0.189854986 8.84004121,0.000225864939 11.3324176,0.000225864939 C13.9124313,0.000225864939 15.8328984,0.177767074 17.8659341,0.365129711 C18.4182005,0.416503337 18.973489,0.467876964 19.5469093,0.515473118 C21.2958791,0.661283557 22.6648352,2.14960773 22.6648352,3.90386597 L22.6648352,12.7174649 C22.6648352,14.4717231 21.2958791,15.9600473 19.5469093,16.1058577 C18.9576236,16.1549649 18.3917582,16.2078495 17.8319368,16.2599786 C15.8434753,16.4458303 13.9660714,16.621105 11.3324176,16.621105 Z M8.68818681,12.8434146 C8.75618132,12.8434146 8.82493132,12.8252827 8.88537088,12.7882635 L15.6848214,8.63304368 C15.7966346,8.56429368 15.8653846,8.44265907 15.8653846,8.31044753 C15.8653846,8.17899148 15.7966346,8.05660137 15.6848214,7.98860687 L8.88537088,3.83338709 C8.76902473,3.76161511 8.62321429,3.75934863 8.50309066,3.82583214 C8.38447802,3.89307115 8.31043956,4.01923874 8.31043956,4.15522775 L8.31043956,12.4656673 C8.31043956,12.6024118 8.38447802,12.7285794 8.50309066,12.7950629 C8.56126374,12.8275492 8.62472527,12.8434146 8.68818681,12.8434146 Z"
                          id="Combined-Shape"></path>
                </g>
            </g>
        </g>
    </g>
</svg>
