<svg xmlns="http://www.w3.org/2000/svg" width="26" height="26" viewBox="0 0 26 26">
    <g fill="none" fill-rule="evenodd">
        <path fill="#000" fill-rule="nonzero" d="M18.394 7.033L5.283 12.47A.473.473 0 0 0 5 12.91c0 .195.113.37.284.44l2.556 1.057 1.64 4.358c.123.31.502.387.723.151l1.98-2.106 3.651 3.087c.256.216.641.075.712-.27L18.99 7.573c.073-.36-.26-.678-.596-.54zM13.712 9.99L8.14 13.516l-1.47-.607 7.042-2.92zm1.314.269l-4.548 4.411a.49.49 0 0 0-.13.229l-.545 2.184-1.069-2.842 6.292-3.982zm-3.993 5.58l.45.38-.741.788.291-1.168zm4.794 2.846l-4.364-3.69 6.365-6.175-2 9.865z"/>
        <circle cx="13" cy="13" r="12.5" stroke="#000"/>
    </g>
</svg>
